<svg xmlns="http://www.w3.org/2000/svg" viewBox="0 0 2647.58 774.82"><defs><style>.cls-1{fill:#bbbbba;}.cls-2{fill:#878888;}.cls-3{fill:#1a2a49;}.cls-4{font-size:495.29px;fill:#1d1d1b;font-family:NexaDemo-Bold, Nexa Demo;font-weight:700;}</style></defs><title>Element 4</title><g id="Ebene_2" data-name="Ebene 2"><g id="Ebene_5" data-name="Ebene 5"><path class="cls-1" d="M76.48,655.26s90.46,74.44,209,0c0,0-2-117-100.8-176.82,0,0,2-75.35,33.54-133.43,0,0,104.64-79.94,262.19-31.2,0,0-14-64.76-134.85-84.12s-194.26,87.45-194.26,87.45-22.7,25.37-29.37,133.52h0s4.67,110.15-12.69,156.87C109.19,607.53,97.18,641.58,76.48,655.26Z"/><path class="cls-2" d="M512.76,315.79l7.65,291.74-41-44.38s16.23-74.19-29.58-111l-.44-.34c-3.73-2.76-74.79-37.22-143.29-2.66h0c0,.24,30.9,60.93,124.17,65.59,0,0,22.68,146.08,102.7,215.54.06.05.08.11,0,.16-2.78,3-85,90-219.55,11.94,0,0,37.88-188.5-109-273.95,0,0,14.27-98.05,31.62-113.4,0,0,98.05-55.91,244.25-13.85Z"/><path class="cls-3" d="M470.63,241.06S529.71,108.89,632.84,78.84h0c-.44-.34-219.55-168.57-476.64-12.52C156.21,66.32-4,169,26,462.35c0,0,4,71.08-26,121.15,0,0,0,0,0,0,.49.05,68.23,7.21,105.14-214.29,0,0,17.53-125.18,125.67-163.22C230.81,206,361.49,152.94,470.63,241.06Z"/><text class="cls-4" transform="translate(830.88 607.29)">imperio</text></g></g></svg>