<svg id="Ebene_1" data-name="Ebene 1" xmlns="http://www.w3.org/2000/svg" viewBox="0 0 467.39 491.62"><defs><style>.cls-1,.cls-2{fill:#fff;}.cls-1{stroke:#1d1d1b;stroke-miterlimit:10;stroke-width:20px;}.cls-3{fill:#1d1d1b;}</style></defs><title>clipboard-camera</title><path class="cls-1" d="M216,358.13H56.5A25.06,25.06,0,0,1,39.15,351,24.49,24.49,0,0,1,32,333.6V88.28A24.53,24.53,0,0,1,56.5,63.75H428.22a24.53,24.53,0,0,1,24.53,24.53v89.34" transform="translate(-21.97 -10.19)"/><path class="cls-1" d="M213,303.73c-33.68-12.18-68.38-46.38-68.34-92.79,0-51.51,42.85-97.72,97.72-97.72,38.14,0,69.8,23.8,85.87,52" transform="translate(-21.97 -10.19)"/><rect class="cls-1" x="47.55" y="87.58" width="75.11" height="30.89" rx="7.12"/><path class="cls-1" d="M145.9,10h149a28.45,28.45,0,0,1,28.45,28.45V53.56a0,0,0,0,1,0,0H117.45a0,0,0,0,1,0,0V38.45A28.45,28.45,0,0,1,145.9,10Z"/><rect class="cls-1" x="238.13" y="219.33" width="219.26" height="262.29" rx="9.54"/><path class="cls-2" d="M306.69,311.22H429.44" transform="translate(-21.97 -10.19)"/><path class="cls-3" d="M306.69,323.72H429.44c16.09,0,16.12-25,0-25H306.69c-16.09,0-16.11,25,0,25Z" transform="translate(-21.97 -10.19)"/><path class="cls-2" d="M306.69,372.76H377" transform="translate(-21.97 -10.19)"/><path class="cls-3" d="M306.69,385.26H377c16.08,0,16.11-25,0-25H306.69c-16.09,0-16.11,25,0,25Z" transform="translate(-21.97 -10.19)"/><path class="cls-2" d="M306.69,434.57H401" transform="translate(-21.97 -10.19)"/><path class="cls-3" d="M306.69,447.07H401c16.09,0,16.11-25,0-25H306.69c-16.09,0-16.11,25,0,25Z" transform="translate(-21.97 -10.19)"/><rect class="cls-1" x="305.75" y="200.75" width="84.01" height="34.55" rx="7.12"/><path class="cls-1" d="M230,358.13" transform="translate(-21.97 -10.19)"/><circle class="cls-3" cx="193.97" cy="347.94" r="10"/><circle class="cls-3" cx="191.11" cy="293.54" r="10"/><circle class="cls-3" cx="430.77" cy="168.02" r="10"/><circle class="cls-3" cx="306.92" cy="156.15" r="10"/></svg>