<svg xmlns="http://www.w3.org/2000/svg" viewBox="0 0 500.4 220"><defs><style>.cls-1{fill:#fff;}.cls-1,.cls-2{stroke:#1d1d1b;stroke-miterlimit:10;stroke-width:20px;}.cls-2{fill:none;}</style></defs><title>keyboard</title><g id="Ebene_1" data-name="Ebene 1"><rect class="cls-1" x="10" y="10" width="480.4" height="200" rx="27.29"/><line class="cls-2" x1="70.4" y1="18" x2="70.4" y2="116"/><line class="cls-2" x1="130.4" y1="18" x2="130.4" y2="116"/><line class="cls-2" x1="190.4" y1="18" x2="190.4" y2="116"/><line class="cls-2" x1="250.4" y1="18" x2="250.4" y2="116"/><line class="cls-2" x1="310.4" y1="18" x2="310.4" y2="116"/><line class="cls-2" x1="370.4" y1="18" x2="370.4" y2="116"/><line class="cls-2" x1="430.4" y1="20" x2="430.4" y2="118"/><line class="cls-2" x1="70.4" y1="166.35" x2="70.4" y2="213.05"/><line class="cls-2" x1="130.4" y1="166.35" x2="130.4" y2="213.05"/><line class="cls-2" x1="370.4" y1="166.35" x2="370.4" y2="213.05"/><line class="cls-2" x1="430.4" y1="167.3" x2="430.4" y2="214"/><line class="cls-2" x1="100.2" y1="116" x2="100.2" y2="166.96"/><line class="cls-2" x1="160.2" y1="116" x2="160.2" y2="166.96"/><line class="cls-2" x1="220.2" y1="116" x2="220.2" y2="166.96"/><line class="cls-2" x1="280.2" y1="116" x2="280.2" y2="166.96"/><line class="cls-2" x1="340.2" y1="116" x2="340.2" y2="166.96"/><line class="cls-2" x1="400.2" y1="116" x2="400.2" y2="166.96"/><line class="cls-2" x1="14.3" y1="60.14" x2="486.51" y2="60.14"/><line class="cls-2" x1="14.1" y1="110.14" x2="486.3" y2="110.14"/><line class="cls-2" x1="14.3" y1="160.14" x2="486.51" y2="160.14"/></g></svg>