<svg id="Ebene_2" data-name="Ebene 2" xmlns="http://www.w3.org/2000/svg" viewBox="0 0 371.31 435.77"><defs><style>.cls-1,.cls-2{fill:#fff;}.cls-1,.cls-3{stroke:#ffa801;stroke-miterlimit:10;stroke-width:20px;}.cls-3{fill:none;}.cls-4{fill:#ffa801;}</style></defs><title>laserpointer</title><path class="cls-1" d="M174.63,51V420.84a2.85,2.85,0,0,0,4.88,2l71-72.07a2.84,2.84,0,0,1,4.64.88l47.11,110.51a2.84,2.84,0,0,0,3.69,1.51l74.77-30.48a2.83,2.83,0,0,0,1.54-3.75L334,316.61a2.85,2.85,0,0,1,2.62-4H441.66a2.85,2.85,0,0,0,2-4.88L179.47,48.93a2.85,2.85,0,0,0-4.84,2Z" transform="translate(-83.2 -38.11)"/><rect class="cls-2" x="334.72" y="190.63" width="59.06" height="85.46" transform="translate(-141.53 287.8) rotate(-45)"/><rect class="cls-2" x="61.9" y="221.63" width="59.06" height="79.2"/><path class="cls-3" d="M360.46,232.74c38.64-22.47,83.5-54.72,34.93-60.6,0,0-16.18-2.3-27.65,0" transform="translate(-83.2 -38.11)"/><path class="cls-3" d="M305,254.8c-76.61,41.41-132.66,44.55-132.66,44.55s-140.7,12.42-47-47.93" transform="translate(-83.2 -38.11)"/><path class="cls-3" d="M126.41,250.84" transform="translate(-83.2 -38.11)"/><path class="cls-3" d="M250.28,239.29l59.17,11.33a.48.48,0,0,1,.35.65l-22.63,53.88" transform="translate(-83.2 -38.11)"/><circle class="cls-4" cx="91.43" cy="221.97" r="9.96"/><circle class="cls-4" cx="91.43" cy="300.83" r="9.96"/><circle class="cls-4" cx="42.2" cy="213.31" r="9.96"/><circle class="cls-4" cx="312.82" cy="222.74" r="9.96"/><circle class="cls-4" cx="251.89" cy="163.28" r="9.96"/><circle class="cls-4" cx="277.26" cy="194.63" r="9.96"/><circle class="cls-4" cx="284.97" cy="133.95" r="9.96"/><circle class="cls-4" cx="204.25" cy="266.44" r="9.96"/><circle class="cls-4" cx="167.08" cy="201.18" r="9.96"/></svg>