<svg id="Ebene_1" data-name="Ebene 1" xmlns="http://www.w3.org/2000/svg" viewBox="0 0 496.32 217.47"><defs><style>.cls-1{fill:#fff;}.cls-1,.cls-2{stroke:#1d1d1b;stroke-miterlimit:10;stroke-width:20px;}.cls-2{fill:none;}.cls-3{fill:#1d1d1b;}</style></defs><title>mediacontrols</title><rect class="cls-1" x="142.06" y="10" width="87.7" height="197.47" rx="12.41"/><rect class="cls-1" x="266.57" y="10" width="87.7" height="197.47" rx="12.41"/><path class="cls-1" d="M28.34,258.92l59.75,51.34a3.84,3.84,0,0,0,6.35-2.92V204.66a3.84,3.84,0,0,0-6.35-2.92L28.34,253.08A3.85,3.85,0,0,0,28.34,258.92Z" transform="translate(-7.84 -147.26)"/><line class="cls-2" x1="10" y1="52.78" x2="10" y2="164.69"/><circle class="cls-3" cx="10" cy="52.78" r="9.96"/><circle class="cls-3" cx="10" cy="164.69" r="9.96"/><path class="cls-1" d="M483.66,253.08l-59.75-51.34a3.84,3.84,0,0,0-6.35,2.92V307.34a3.84,3.84,0,0,0,6.35,2.92l59.75-51.34A3.85,3.85,0,0,0,483.66,253.08Z" transform="translate(-7.84 -147.26)"/><line class="cls-2" x1="486.32" y1="164.69" x2="486.32" y2="52.78"/><circle class="cls-3" cx="486.32" cy="164.69" r="9.96"/><circle class="cls-3" cx="486.32" cy="52.78" r="9.96"/></svg>