<svg id="Ebene_1" data-name="Ebene 1" xmlns="http://www.w3.org/2000/svg" viewBox="0 0 100 100"><defs><style>.cls-1{fill:#f9b233;}.cls-2{fill:#cc1517;}.cls-3{fill:#fff;}</style></defs><path class="cls-1" d="M76.14,65l-3-12-32.87-.28L47,67.25l17.76-.17L79.66,100,42.5,82.43,18.07,92.32c-.26-3.21-.61-8-.82-13.74-.46-12.32-.65-18.61.89-25.21C19.31,48.4,20.78,42.1,26,36A33.39,33.39,0,0,1,43.29,25.19a32.87,32.87,0,0,1,18.87,1,27.26,27.26,0,0,1,12.48,8.48c2.64,3.29,3.65,6.33,5.09,10.83a72.12,72.12,0,0,1,3.35,18.87Z"/><path class="cls-2" d="M12.88,53a66.39,66.39,0,0,0-.82,13.78A49.89,49.89,0,0,1,7.81,52.74Z"/><path class="cls-2" d="M9.17,33.5,18,37.3c-.37.66-.72,1.34-1.06,2.06a38.83,38.83,0,0,0-1.78,4.5c-.49,1.41-1,3.06-1.45,5l-6.34-.34a44.21,44.21,0,0,1,1-12.06C8.62,35.42,8.88,34.45,9.17,33.5Z"/><path class="cls-2" d="M25.1,10.73l7,12.12-.79.47a38.74,38.74,0,0,0-11,10.36l-9.73-4.17A46.79,46.79,0,0,1,25.1,10.73Z"/><path class="cls-2" d="M58.4.14l-3.75,18C53.08,18,51.83,18,51.06,18a36.88,36.88,0,0,0-15.17,3L28.54,8.23a51.94,51.94,0,0,1,11-5.76A46.78,46.78,0,0,1,58.4.14Z"/><path class="cls-2" d="M92.67,10.21,76.26,29a31.13,31.13,0,0,0-4.9-4.51,32.84,32.84,0,0,0-12.53-5.65L62.63.58A105.38,105.38,0,0,1,77.19,4,81.65,81.65,0,0,1,92.67,10.21Z"/><path class="cls-3" d="M13.73,48.82,12.88,53C13.12,51.5,13.42,50.1,13.73,48.82Z"/></svg>