<?xml version="1.0" encoding="utf-8"?>
<!-- Generator: Adobe Illustrator 25.0.0, SVG Export Plug-In . SVG Version: 6.00 Build 0)  -->
<svg version="1.1" id="Ebene_1" xmlns="http://www.w3.org/2000/svg" xmlns:xlink="http://www.w3.org/1999/xlink" x="0px" y="0px"
	 viewBox="0 0 100 100" style="enable-background:new 0 0 100 100;" xml:space="preserve">
<style type="text/css">
	.st0{fill:none;}
	.st1{fill:#FFFFFF;}
</style>
<path class="st0" d="M41,41h18v18H41V41z"/>
<path class="st1" d="M50,0C22.4,0,0,22.4,0,50s22.4,50,50,50s50-22.4,50-50S77.6,0,50,0z M45,89.7C25.3,87.2,10,70.4,10,50
	c0-3.1,0.4-6,1.1-9l24,24v5c0,5.5,4.5,10,10,10V89.7z M79.5,76.9c-1.3-4-5-7-9.5-7h-5V55c0-2.8-2.3-5-5-5H30V40h10c2.8,0,5-2.3,5-5
	V25h10c5.5,0,10-4.5,10-10v-2c14.7,6,25,20.3,25,37C90,60.4,86,69.8,79.5,76.9z"/>
</svg>
