<?xml version="1.0" encoding="utf-8"?>
<!-- Generator: Adobe Illustrator 25.0.0, SVG Export Plug-In . SVG Version: 6.00 Build 0)  -->
<svg version="1.1" id="Ebene_1" xmlns="http://www.w3.org/2000/svg" xmlns:xlink="http://www.w3.org/1999/xlink" x="0px" y="0px"
	 viewBox="0 0 100 100" style="enable-background:new 0 0 100 100;" xml:space="preserve">
<path d="M99.1,21.7c-3.2-5.6-14-5.8-29.6-0.7c-5.8-3.9-12.6-6-19.5-6c-19.3,0-35,15.7-35,35c0,0.8,0.1,1.6,0.1,2.4
	C2.9,63.4-2.3,72.8,0.9,78.4c1.7,2.9,5.4,4.4,10.8,4.4c6.4-0.3,12.7-1.5,18.7-3.7c5.8,3.9,12.6,6,19.5,6c19.3,0,35-15.7,35-35
	c0-0.8-0.1-1.6-0.1-2.4C97.1,36.8,102.3,27.3,99.1,21.7z M76.9,27.6c0.6-0.1,1.2-0.2,1.8-0.3l0.3-0.1c0.5-0.1,1-0.1,1.4-0.2l0.3,0
	c0.4,0,0.8-0.1,1.2-0.1h0.2c0.3,0,0.7,0,1,0h0.1c0.3,0,0.5,0.1,0.8,0.1l0.1,0c0.2,0,0.4,0.1,0.5,0.2c0,0,0.1,0,0.1,0
	c0.1,0.1,0.3,0.1,0.4,0.2c0,0,0,0,0,0c0.1,0.1,0.2,0.1,0.2,0.2c0,0.1,0.1,0.2,0.1,0.3l0,0c0,0.1,0,0.3,0,0.4l0,0.1
	c0,0.2-0.1,0.4-0.1,0.5c0,0,0,0.1,0,0.1c-0.1,0.2-0.2,0.5-0.3,0.7v0c-0.1,0.3-0.3,0.6-0.5,0.9L84.4,31c-0.2,0.3-0.4,0.6-0.6,1
	l-0.1,0.2c-0.2,0.4-0.5,0.7-0.9,1.1l-0.1,0.2c-0.3,0.4-0.7,0.9-1.1,1.3l0,0c-0.1-0.2-0.2-0.4-0.3-0.5c-0.1-0.2-0.2-0.4-0.3-0.6
	c-0.5-0.9-1-1.8-1.5-2.6c0-0.1-0.1-0.1-0.1-0.2c-0.5-0.8-1.1-1.6-1.7-2.3c-0.1-0.2-0.3-0.3-0.4-0.5C77,27.9,77,27.8,76.9,27.6
	L76.9,27.6z M50,18.4c6.6,0,13,2,18.3,5.8c1.5,1.1,3,2.3,4.3,3.6c0.7,0.7,1.4,1.5,2,2.3c0.2,0.3,0.4,0.5,0.6,0.8
	c0.4,0.5,0.8,1.1,1.2,1.6c0.2,0.3,0.4,0.7,0.6,1c0.3,0.5,0.6,1,0.9,1.6c0.2,0.4,0.4,0.8,0.6,1.1c0.2,0.3,0.3,0.7,0.5,1.1
	c-0.3,0.3-0.5,0.5-0.8,0.8c-0.4,0.4-0.8,0.7-1.2,1.1c-0.5,0.4-0.9,0.8-1.4,1.2c-0.4,0.4-0.8,0.7-1.3,1.1c-0.5,0.4-1.1,0.9-1.6,1.3
	c-0.5,0.4-0.9,0.7-1.4,1.1c-0.6,0.4-1.2,0.9-1.8,1.3c-0.5,0.4-1,0.7-1.5,1.1c-0.6,0.5-1.3,0.9-1.9,1.4c-0.5,0.3-1,0.7-1.5,1
	c-0.7,0.5-1.5,1-2.2,1.5c-0.5,0.3-0.9,0.6-1.4,1c-0.8,0.5-1.7,1.1-2.5,1.6c-0.4,0.3-0.8,0.5-1.3,0.8c-1.3,0.8-2.6,1.6-3.9,2.3
	c-1.3,0.8-2.7,1.5-4,2.2c-0.5,0.3-0.9,0.5-1.4,0.7c-0.9,0.5-1.7,0.9-2.6,1.4c-0.5,0.3-1.1,0.5-1.6,0.8c-0.8,0.4-1.5,0.8-2.3,1.1
	c-0.6,0.3-1.1,0.5-1.6,0.8c-0.7,0.3-1.4,0.7-2.2,1c-0.6,0.2-1.1,0.5-1.7,0.7c-0.7,0.3-1.4,0.6-2,0.9c-0.5,0.2-1.1,0.4-1.6,0.6
	c-0.7,0.3-1.3,0.5-1.9,0.7c-0.5,0.2-1,0.4-1.5,0.5c-0.6,0.2-1.2,0.4-1.8,0.6c-0.5,0.2-1,0.3-1.5,0.5c-0.4,0.1-0.8,0.2-1.1,0.3
	c-0.2-0.3-0.5-0.6-0.7-1c-0.2-0.3-0.5-0.7-0.7-1.1c-0.3-0.5-0.6-1-0.9-1.6c-0.2-0.4-0.4-0.7-0.6-1.1c-0.3-0.6-0.5-1.2-0.8-1.8
	c-0.1-0.3-0.3-0.6-0.4-1c-0.3-0.9-0.6-1.8-0.9-2.7c0-0.1,0-0.1-0.1-0.2c-0.5-1.8-0.8-3.7-1-5.5c-0.1-1-0.1-1.9-0.1-2.9
	C18.4,32.6,32.5,18.4,50,18.4z M21,69.7c-0.6,0.1-1.2,0.2-1.7,0.3l-0.2,0c-0.5,0.1-1,0.1-1.4,0.2l-0.2,0c-0.4,0-0.8,0.1-1.2,0.1
	h-0.1c-0.4,0-0.7,0-1,0h0c-0.3,0-0.5-0.1-0.8-0.1l-0.1,0c-0.2,0-0.4-0.1-0.5-0.2l-0.1,0c-0.1-0.1-0.2-0.1-0.4-0.2l0,0
	c-0.1-0.1-0.2-0.1-0.2-0.2c0-0.1-0.1-0.2-0.1-0.3v-0.1c0-0.1,0-0.3,0-0.4l0-0.1c0-0.2,0.1-0.4,0.1-0.6l0-0.1
	c0.1-0.3,0.2-0.5,0.3-0.7v0c0.1-0.3,0.3-0.6,0.5-0.9l0.1-0.2c0.2-0.3,0.4-0.6,0.7-1c0.1-0.1,0.1-0.2,0.2-0.2
	c0.3-0.4,0.6-0.7,0.9-1.1l0.2-0.2c0.4-0.4,0.7-0.9,1.2-1.3l0,0c0,0.1,0.1,0.2,0.2,0.4c0.1,0.2,0.1,0.4,0.2,0.5
	c0.4,0.9,0.8,1.8,1.2,2.7c0,0.1,0.1,0.1,0.1,0.2c0.5,0.9,1,1.8,1.5,2.7c0.1,0.2,0.2,0.4,0.3,0.5C20.8,69.3,20.9,69.5,21,69.7
	L21,69.7z M50,81.7c-5.4,0-10.8-1.4-15.5-4l0.1,0l0.1,0c1-0.4,2-0.8,3.1-1.2c0.3-0.1,0.7-0.3,1-0.4c0.7-0.3,1.5-0.6,2.2-0.9
	c0.4-0.2,0.8-0.4,1.2-0.5c0.7-0.3,1.4-0.6,2.1-0.9c0.4-0.2,0.9-0.4,1.3-0.6c0.7-0.3,1.4-0.6,2-1c0.4-0.2,0.9-0.4,1.3-0.7
	c0.7-0.3,1.4-0.7,2.1-1.1c0.4-0.2,0.9-0.4,1.3-0.7c0.8-0.4,1.5-0.8,2.3-1.2c0.4-0.2,0.7-0.4,1.1-0.6c1.1-0.6,2.2-1.3,3.4-1.9
	c1.1-0.6,2.2-1.3,3.3-2c0.4-0.2,0.7-0.4,1.1-0.7c0.7-0.4,1.5-0.9,2.2-1.4c0.4-0.3,0.8-0.5,1.2-0.8c0.7-0.4,1.3-0.8,1.9-1.3
	c0.4-0.3,0.8-0.6,1.3-0.8c0.6-0.4,1.2-0.8,1.8-1.3c0.4-0.3,0.8-0.6,1.2-0.9c0.6-0.4,1.2-0.9,1.8-1.3c0.4-0.3,0.8-0.6,1.1-0.8
	c0.6-0.5,1.2-0.9,1.8-1.4c0.3-0.2,0.6-0.5,1-0.7c0.8-0.6,1.5-1.2,2.3-1.8c0.1-0.1,0.3-0.2,0.4-0.3l0,0C81.4,67.8,67.3,81.7,50,81.7z
	 M82.1,45.7C74.5,52.3,66.2,58.1,57.5,63c-1.2,0.7-2.3,1.3-3.5,2c-2.3,1.3-4.7,2.5-7,3.6c-0.1,0-0.1,0.1-0.2,0.1
	c-5.4,2.7-10.9,5-16.6,6.9c-13.7,4.6-24.1,5.1-26.4,1.1C1.7,73,6.3,65.2,15.6,56.5c0.1,0.7,0.3,1.3,0.4,2c-0.3,0.3-0.5,0.5-0.7,0.8
	c-0.3,0.3-0.6,0.7-0.9,1c-0.3,0.4-0.6,0.7-0.9,1.1c-0.3,0.3-0.5,0.6-0.7,0.9c-0.3,0.3-0.5,0.7-0.7,1c-0.2,0.3-0.4,0.6-0.6,0.8
	c-0.2,0.3-0.4,0.6-0.5,0.9c-0.1,0.2-0.3,0.5-0.4,0.8c-0.1,0.3-0.2,0.6-0.4,0.9c-0.1,0.2-0.2,0.5-0.2,0.7c-0.1,0.3-0.1,0.6-0.2,0.9
	c0,0.2-0.1,0.4-0.1,0.6c0,0.3,0,0.6,0.1,0.9c0,0.1,0,0.3,0,0.4c0.2,0.8,0.6,1.5,1.1,2c0,0,0.1,0.1,0.1,0.1c0.3,0.2,0.6,0.5,0.9,0.6
	c0.1,0,0.1,0.1,0.2,0.1c0.4,0.2,0.8,0.3,1.2,0.4c0,0,0.1,0,0.2,0c0.5,0.1,0.9,0.2,1.4,0.2l0.2,0c0.4,0,0.8,0,1.2,0
	c0.1,0,0.3,0,0.4,0c0.2,0,0.5,0,0.7,0c0.4,0,0.9-0.1,1.3-0.1c0.3,0,0.5-0.1,0.8-0.1c0.5-0.1,1-0.2,1.6-0.3c0.3,0,0.5-0.1,0.8-0.1
	c0.8-0.2,1.6-0.4,2.5-0.6l0,0C35,69.1,45.4,64.5,55,58.7c2.8-1.6,5.5-3.2,8-4.9c1.7-1.1,3.3-2.2,4.9-3.3c5-3.4,9.8-7.3,14.2-11.5
	c5.7-5.7,7.6-9.9,6-12.8c-0.2-0.4-0.5-0.7-0.8-1c-0.1-0.1-0.2-0.1-0.3-0.2c-0.2-0.2-0.5-0.4-0.8-0.5c-0.1-0.1-0.3-0.1-0.5-0.2
	c-0.3-0.1-0.6-0.2-0.9-0.3c-0.2,0-0.4-0.1-0.6-0.1c-0.3-0.1-0.7-0.1-1.1-0.2c-0.2,0-0.5,0-0.7,0c-0.4,0-0.8,0-1.2,0
	c-0.3,0-0.6,0-0.9,0.1c-0.4,0-0.9,0.1-1.4,0.1c-0.3,0-0.7,0.1-1,0.2c-0.5,0.1-1,0.2-1.5,0.3c-0.4,0.1-0.8,0.2-1.2,0.3
	c-0.4,0.1-0.7,0.2-1.1,0.3c-0.5-0.5-1-0.9-1.5-1.4C85,19.8,94,19.7,96.2,23.4C98.5,27.4,92.9,36.2,82.1,45.7z"/>
</svg>
