<?xml version="1.0" encoding="utf-8"?>
<!-- Generator: Adobe Illustrator 25.0.0, SVG Export Plug-In . SVG Version: 6.00 Build 0)  -->
<svg version="1.1" id="Ebene_1" xmlns="http://www.w3.org/2000/svg" xmlns:xlink="http://www.w3.org/1999/xlink" x="0px" y="0px"
	 viewBox="0 0 100 100" style="enable-background:new 0 0 100 100;" xml:space="preserve">
<style type="text/css">
	.st0{fill:none;}
</style>
<path class="st0" d="M0,0h100v100H0V0z"/>
<path d="M50,18.8c-20.8,0-38.6,13-45.8,31.3c7.2,18.3,25,31.3,45.8,31.3s38.6-13,45.8-31.3C88.6,31.7,70.8,18.8,50,18.8z M50,70.8
	c-11.5,0-20.8-9.3-20.8-20.8S38.5,29.2,50,29.2S70.8,38.5,70.8,50S61.5,70.8,50,70.8z M50,37.5c-6.9,0-12.5,5.6-12.5,12.5
	S43.1,62.5,50,62.5S62.5,56.9,62.5,50S56.9,37.5,50,37.5z"/>
</svg>
