<?xml version="1.0" encoding="utf-8"?>
<!-- Generator: Adobe Illustrator 25.0.0, SVG Export Plug-In . SVG Version: 6.00 Build 0)  -->
<svg version="1.1" id="Ebene_1" xmlns="http://www.w3.org/2000/svg" xmlns:xlink="http://www.w3.org/1999/xlink" x="0px" y="0px"
	 viewBox="0 0 100 100" style="enable-background:new 0 0 100 100;" xml:space="preserve">
<style type="text/css">
	.st0{fill:none;}
</style>
<path class="st0" d="M0,0h100v100H0V0z M0,0h100v100H0V0z M0,0h100v100H0V0z M0,0h100v100H0V0z"/>
<path d="M50,29.2c11.5,0,20.8,9.3,20.8,20.8c0,2.7-0.5,5.3-1.5,7.6l12.2,12.2c6.3-5.3,11.3-12,14.3-19.8
	c-7.2-18.3-25-31.3-45.8-31.3c-5.8,0-11.4,1-16.6,2.9l9,9C44.8,29.7,47.3,29.2,50,29.2z M8.3,17.8l9.5,9.5l1.9,1.9
	C12.8,34.6,7.4,41.8,4.2,50c7.2,18.3,25,31.3,45.8,31.3c6.5,0,12.6-1.3,18.3-3.5l1.8,1.8l12.2,12.2l5.3-5.3L13.6,12.5L8.3,17.8z
	 M31.4,40.8l6.5,6.5c-0.2,0.9-0.3,1.8-0.3,2.7c0,6.9,5.6,12.5,12.5,12.5c0.9,0,1.8-0.1,2.7-0.3l6.5,6.5c-2.8,1.4-5.9,2.2-9.2,2.2
	c-11.5,0-20.8-9.3-20.8-20.8C29.2,46.7,30,43.6,31.4,40.8z M49.3,37.6l13.1,13.1l0.1-0.7c0-6.9-5.6-12.5-12.5-12.5L49.3,37.6z"/>
</svg>
